<?xml version="1.0" encoding="utf-8" ?><svg xmlns="http://www.w3.org/2000/svg" xmlns:xlink="http://www.w3.org/1999/xlink" width="512" height="512" viewBox="0 0 512 512"><path fill="#0E5D2B" d="M0 0L512 0L512 512L0 512L0 0Z"/><path fill="#F7C311" d="M388.121 26.1947C390.775 25.8958 394.919 26.0208 397.713 26.022L413.817 26.0319L437.661 26.043C443.21 26.0338 451.417 25.7952 456.67 26.8196C462.663 28.0296 468.274 30.6716 473.024 34.5201C480.654 40.6392 485.542 49.5373 486.614 59.2589C487.102 63.8311 486.986 69.0825 486.982 73.7332L486.974 92.691L486.971 155.894L486.979 208.992L486.991 225.121C486.992 227.333 487.107 231.782 486.872 233.782C487.146 236.658 486.978 241.983 486.974 245L486.957 266.18L486.963 334.058L486.966 395.829L486.972 413.479C486.973 426.186 486.893 436.189 478.109 446.458C472.917 452.526 466.85 456.178 459.266 458.605C457.564 459.153 454.894 460.202 453.134 460.239C447.606 460.357 441.915 460.296 436.392 460.286L403.822 460.273C400.843 460.435 390.998 460.442 388.135 460.138C382.903 470.507 382.565 476.433 380.605 487.014C373.971 486.923 367.189 487.075 360.612 486.928C342.793 487.174 324.92 486.86 307.096 486.958C304.72 486.971 302.238 486.996 299.867 486.911C290.709 487.236 280.012 486.975 270.766 486.975L215.049 486.973L168.773 486.981C159.886 486.981 149.534 487.209 140.733 486.712C131.217 487.139 121.339 486.968 111.782 486.968L68.0809 486.957C64.5682 483.549 61.3567 479.232 64.7962 474.364C65.9674 472.707 67.7347 472.007 68.8883 470.283C61.8822 464.988 62.959 463.277 65.315 456.06C65.0554 456.04 64.7452 456.031 64.5081 455.922C52.2004 450.258 40.5537 442.148 33.5733 430.296C26.2864 417.926 24.3495 403.382 28.1157 389.515C30.1358 382.077 33.2603 375.286 38.1789 369.29C40.2892 366.717 42.6219 364.253 45.5145 362.573C53.0794 355.834 62.752 355.309 72.1901 355.229C67.9498 359.207 62.9372 361.586 61.0517 367.752C57.1474 380.519 70.191 389.935 81.5014 383.147C90.837 377.544 93.772 369.985 96.6728 360.142C98.4865 350.281 96.5412 342.456 94.8878 332.865C92.698 331.521 90.1268 332.24 87.9502 329.239C85.0059 325.179 86.9014 322.58 87.3148 318.664C81.1854 316.855 75.1265 317.167 70.3887 312.025C63.6329 304.693 68.3935 300.134 72.6662 293.269L87.5441 269.629C90.7553 264.535 96.7824 256.353 97.0795 250.529C96.8618 249.854 95.5562 248.276 95.047 247.684C91.9703 244.157 89.8989 240.078 89.4934 235.362C89.2634 232.687 90.5486 229.742 90.4161 227.089C89.8426 225.044 89.5335 221.541 89.3303 219.356C87.4701 218.184 83.6279 219.482 80.8791 216.546C76.3668 211.728 77.6426 207.068 81.6284 202.701C80.9257 202.234 79.6087 201.877 78.7589 201.541C76.1927 200.528 74.063 199.65 71.9424 197.857C68.0547 194.574 65.6708 189.85 65.3395 184.773C65.1561 182.031 65.3325 178.947 65.3237 176.118C65.3124 172.462 64.5264 167.812 66.2774 164.49C67.2399 162.664 69.4797 161.633 70.8009 160.011C65.7138 150.833 60.5286 141.709 55.2464 132.641C49.9069 123.15 44.5154 113.688 39.0723 104.256C50.1549 104.499 61.889 104.298 73.0404 104.299L137.702 104.303C141.905 104.304 181.595 104.694 183.314 104.069L183.641 103.157C183.48 102.067 183.569 98.0257 183.572 96.6889L183.648 82.2643C183.532 76.0616 183.334 65.6083 183.975 59.7174C185.011 49.7357 190.019 40.5905 197.871 34.3416C205.876 27.9791 214.491 25.9748 224.467 26.0844C230.836 26.1543 237.28 26.1033 243.65 26.0906L299.708 26.0885L359.557 26.085L377.797 26.0517C380.535 26.0449 385.576 25.906 388.121 26.1947Z"/><path fill="#F7C311" d="M361.027 297.009C362.904 301.434 364.477 305.483 366.55 309.857C369.081 315.197 371.901 320.305 374.469 325.582C382.183 339.43 384.004 355.799 379.523 371.004C377.628 377.4 375.673 381.391 372.361 387.076C374.496 387.283 388.223 387.44 389.855 387.089C395.747 386.902 403.639 385.864 404.517 393.241C405.029 397.549 400.241 401.921 400.323 403.979C403.363 406.519 405.285 409.207 407.005 412.779C407.098 414.961 407.3 418.378 406.71 420.437C405.069 426.164 401.781 432.147 399.117 437.517C395.318 444.989 391.657 452.531 388.135 460.138C382.903 470.507 382.565 476.433 380.605 487.014C373.971 486.923 367.189 487.075 360.612 486.928C342.793 487.174 324.92 486.86 307.096 486.958C304.72 486.971 302.238 486.996 299.867 486.911C290.709 487.236 280.012 486.975 270.766 486.975L215.049 486.973L168.773 486.981C159.886 486.981 149.534 487.209 140.733 486.712C131.217 487.139 121.339 486.968 111.782 486.968L68.0809 486.957C64.5682 483.549 61.3567 479.232 64.7962 474.364C65.9674 472.707 67.7347 472.007 68.8883 470.283C61.8822 464.988 62.959 463.277 65.315 456.06C65.0554 456.04 64.7452 456.031 64.5081 455.922C52.2004 450.258 40.5537 442.148 33.5733 430.296C26.2864 417.926 24.3495 403.382 28.1157 389.515C30.1358 382.077 33.2603 375.286 38.1789 369.29C40.2892 366.717 42.6219 364.253 45.5145 362.573C53.0794 355.834 62.752 355.309 72.1901 355.229C67.9498 359.207 62.9372 361.586 61.0517 367.752C57.1474 380.519 70.191 389.935 81.5014 383.147C90.837 377.544 93.772 369.985 96.6728 360.142C100.495 361.117 103.751 362.229 107.697 363.032C119.955 365.523 131.502 365.672 143.951 365.494C154.75 365.376 172.907 362.844 182.313 357.714L183.753 356.845C183.873 356.571 185.697 353.985 185.942 353.648C192.37 344.818 203.276 340.939 213.865 340.506C215.449 340.441 221.932 340.752 222.932 340.275C219.532 332.147 216.55 321.584 213.63 313.122C216.608 311.522 259.084 307.855 266.062 307.163L329.352 300.407C339.599 299.29 350.947 298.554 361.027 297.009Z"/><path fill="#E48838" d="M361.027 297.009C362.904 301.434 364.477 305.483 366.55 309.857C369.081 315.197 371.901 320.305 374.469 325.582C382.183 339.43 384.004 355.799 379.523 371.004C377.628 377.4 375.673 381.391 372.361 387.076C368.492 387.222 363.982 387.027 360.044 387.018L335.638 387.033L266.815 387.027L243.393 387.007C239.384 386.996 234.714 386.837 230.77 387.23C225.09 387.796 221.579 395.633 218.267 399.586C213.234 398.635 209.236 397.643 204.72 395.758C189.564 389.434 177.808 373.954 183.729 357.172C183.737 357.063 183.745 356.954 183.753 356.845C183.873 356.571 185.697 353.985 185.942 353.648C192.37 344.818 203.276 340.939 213.865 340.506C215.449 340.441 221.932 340.752 222.932 340.275C219.532 332.147 216.55 321.584 213.63 313.122C216.608 311.522 259.084 307.855 266.062 307.163L329.352 300.407C339.599 299.29 350.947 298.554 361.027 297.009Z"/><path fill="#DE4213" d="M361.027 297.009C362.904 301.434 364.477 305.483 366.55 309.857C369.081 315.197 371.901 320.305 374.469 325.582C369.373 326.679 358.362 327.589 352.902 328.135L313.996 331.924L251.243 338.279C242.097 339.148 232.649 340.124 223.496 340.677C223.334 340.572 223.043 340.406 222.932 340.275C219.532 332.147 216.55 321.584 213.63 313.122C216.608 311.522 259.084 307.855 266.062 307.163L329.352 300.407C339.599 299.29 350.947 298.554 361.027 297.009Z"/><path fill="#811608" d="M45.5145 362.573C53.0794 355.834 62.752 355.309 72.1901 355.229C67.9498 359.207 62.9372 361.586 61.0517 367.752C57.1474 380.519 70.191 389.935 81.5014 383.147C90.837 377.544 93.772 369.985 96.6728 360.142C100.495 361.117 103.751 362.229 107.697 363.032C119.955 365.523 131.502 365.672 143.951 365.494C154.75 365.376 172.907 362.844 182.313 357.714L183.753 356.845C183.745 356.954 183.737 357.063 183.729 357.172C177.808 373.954 189.564 389.434 204.72 395.758C209.236 397.643 213.234 398.635 218.267 399.586C213.467 406.031 208.743 411.892 203.154 417.58C170.506 450.802 122.809 454.868 78.7567 453.43C75.6807 453.33 72.3342 453.354 69.2654 453.598C67.8893 453.728 66.1932 455.109 65.315 456.06C65.0554 456.04 64.7452 456.031 64.5081 455.922C52.2004 450.258 40.5537 442.148 33.5733 430.296C26.2864 417.926 24.3495 403.382 28.1157 389.515C30.1358 382.077 33.2603 375.286 38.1789 369.29C40.2892 366.717 42.6219 364.253 45.5145 362.573Z"/><path fill="#DE4213" d="M45.5145 362.573C53.0794 355.834 62.752 355.309 72.1901 355.229C67.9498 359.207 62.9372 361.586 61.0517 367.752C57.1474 380.519 70.191 389.935 81.5014 383.147C90.837 377.544 93.772 369.985 96.6728 360.142C100.495 361.117 103.751 362.229 107.697 363.032C119.955 365.523 131.502 365.672 143.951 365.494C144.173 375.079 143.894 382.773 140.957 392.059C136.763 405.59 127.269 416.848 114.64 423.266C91.3758 435.211 58.4097 427.432 46.4512 403.114C39.6096 389.202 40.8288 376.806 45.5145 362.573Z"/><path fill="#DE4213" d="M140.733 486.712C175.178 480.608 201.695 470.219 226.955 445.102C230.605 441.461 234.092 437.66 237.405 433.71C240.738 429.681 243.948 423.643 249.481 423.12C253.724 422.719 257.947 422.754 262.204 422.758L280.633 422.769L345.133 422.804L343.673 423.147L343.462 423.559C341.818 426.709 336.072 434.637 333.744 438.019L312.327 469.156C309.105 473.804 302.917 482.137 300.387 486.696L299.867 486.911C290.709 487.236 280.012 486.975 270.766 486.975L215.049 486.973L168.773 486.981C159.886 486.981 149.534 487.209 140.733 486.712Z"/><defs><linearGradient id="gradient_0" gradientUnits="userSpaceOnUse" x1="291.14624" y1="326.47122" x2="176.13211" y2="530.05615"><stop offset="0" stop-color="#0941B9"/><stop offset="1" stop-color="#3E8AEA"/></linearGradient></defs><path fill="url(#gradient_0)" d="M372.361 387.076C374.496 387.283 388.223 387.44 389.855 387.089C395.747 386.902 403.639 385.864 404.517 393.241C405.029 397.549 400.241 401.921 400.323 403.979C398.818 404.215 393.479 403.74 391.44 403.736L364.163 403.75L270.945 403.741L251.53 403.711C243.847 403.702 238.212 402.32 233.132 409.261C229.026 414.871 224.707 420.549 220.226 425.778C187.79 463.619 137.911 471.227 90.6656 470.229C84.3957 470.097 75.0831 469.719 68.8883 470.283C61.8822 464.988 62.959 463.277 65.315 456.06C66.1932 455.109 67.8893 453.728 69.2654 453.598C72.3342 453.354 75.6807 453.33 78.7567 453.43C122.809 454.868 170.506 450.802 203.154 417.58C208.743 411.892 213.467 406.031 218.267 399.586C221.579 395.633 225.09 387.796 230.77 387.23C234.714 386.837 239.384 386.996 243.393 387.007L266.815 387.027L335.638 387.033L360.044 387.018C363.982 387.027 368.492 387.222 372.361 387.076Z"/><path fill="#BA120C" d="M345.133 422.804L367.278 422.764C369.204 422.76 370.851 422.776 373.067 422.765C376.603 422.747 383.39 422.316 383.159 427.607C383.13 428.286 382.198 430.07 381.943 430.746C379.927 434.844 377.742 438.856 375.782 442.981C373.779 447.279 371.851 451.612 370.001 455.978C366.029 465.458 362.364 476.759 360.612 486.928C342.793 487.174 324.92 486.86 307.096 486.958C304.72 486.971 302.238 486.996 299.867 486.911L300.387 486.696C302.917 482.137 309.105 473.804 312.327 469.156L333.744 438.019C336.072 434.637 341.818 426.709 343.462 423.559L343.673 423.147L345.133 422.804Z"/><path fill="#FEFEFE" d="M388.121 26.1947C390.775 25.8958 394.919 26.0208 397.713 26.022L413.817 26.0319L437.661 26.043C443.21 26.0338 451.417 25.7952 456.67 26.8196C462.663 28.0296 468.274 30.6716 473.024 34.5201C480.654 40.6392 485.542 49.5373 486.614 59.2589C487.102 63.8311 486.986 69.0825 486.982 73.7332L486.974 92.691L486.971 155.894L486.979 208.992L486.991 225.121C486.992 227.333 487.107 231.782 486.872 233.782C487.146 236.658 486.978 241.983 486.974 245L486.957 266.18L486.963 334.058L486.966 395.829L486.972 413.479C486.973 426.186 486.893 436.189 478.109 446.458C472.917 452.526 466.85 456.178 459.266 458.605C457.564 459.153 454.894 460.202 453.134 460.239C447.606 460.357 441.915 460.296 436.392 460.286L403.822 460.273C400.843 460.435 390.998 460.442 388.135 460.138C391.657 452.531 395.318 444.989 399.117 437.517C401.781 432.147 405.069 426.164 406.71 420.437C407.3 418.378 407.098 414.961 407.005 412.779C405.285 409.207 403.363 406.519 400.323 403.979C400.241 401.921 405.029 397.549 404.517 393.241C403.639 385.864 395.747 386.902 389.855 387.089C388.223 387.44 374.496 387.283 372.361 387.076C375.673 381.391 377.628 377.4 379.523 371.004C384.004 355.799 382.183 339.43 374.469 325.582C371.901 320.305 369.081 315.197 366.55 309.857C364.477 305.483 362.904 301.434 361.027 297.009C350.707 271.362 347.739 247.836 345.889 220.764L346.024 219.868C346.791 219.177 349.686 219.675 351.303 218.768C357.519 215.281 357.23 208.587 354.47 203.008C356.07 202.923 357.978 202.762 359.53 202.422C364.659 201.287 369.113 198.129 371.88 193.663C373.095 191.713 373.946 189.559 374.392 187.305C375.085 183.747 374.957 170.203 374.473 165.955C374.179 163.376 371.657 161.323 369.448 159.992C370.436 157.61 375.051 150.093 376.685 147.318L391.815 121.521C394.602 116.086 399.537 108.524 402.798 102.921C396.775 103.173 389.053 103.042 382.958 102.97C383.998 101.318 385.759 99.1271 386.953 97.504L393.823 87.9883C394.896 86.491 396.819 83.9586 397.586 82.373C391.334 81.9842 381.934 82.2605 375.498 82.2621L332.949 82.2671C334.08 80.865 336.7 78.3976 338.049 77.0523L347.338 67.7756L376.318 38.5088C378.491 36.3161 386.998 27.9903 388.121 26.1947Z"/><path fill="#8EBBFC" d="M404.134 322.301C405.79 322.053 475.453 245.108 483.309 237.216C484.193 236.328 485.531 234.709 486.872 233.782C487.146 236.658 486.978 241.983 486.974 245L486.957 266.18L486.963 334.058L486.966 395.829L486.972 413.479C486.973 426.186 486.893 436.189 478.109 446.458C472.917 452.526 466.85 456.178 459.266 458.605C457.564 459.153 454.894 460.202 453.134 460.239C447.606 460.357 441.915 460.296 436.392 460.286L403.822 460.273C400.843 460.435 390.998 460.442 388.135 460.138C391.657 452.531 395.318 444.989 399.117 437.517C401.781 432.147 405.069 426.164 406.71 420.437C407.3 418.378 407.098 414.961 407.005 412.779C405.285 409.207 403.363 406.519 400.323 403.979C400.241 401.921 405.029 397.549 404.517 393.241C403.639 385.864 395.747 386.902 389.855 387.089C387.089 383.7 383.735 378.696 381.044 375.022C384.052 371.39 387.172 366.746 389.955 362.855C394.509 356.477 399.11 350.134 403.757 343.824L404.539 342.55C404.963 337.231 405.056 327.468 404.134 322.301Z"/><path fill="#BA120C" d="M381.044 375.022C384.052 371.39 387.172 366.746 389.955 362.855C394.509 356.477 399.11 350.134 403.757 343.824C404.113 349.42 398.093 361.798 394.889 366.748C400.144 366.523 405.789 366.574 411.066 366.58C414.781 366.585 423.08 365.835 425.748 368.222C426.908 369.27 427.599 370.74 427.667 372.301C427.803 375.689 424.408 380.587 422.628 383.477C425.993 385.629 428.746 388.145 429.76 392.24C430.33 394.541 429.716 397.933 430.667 399.405L428.042 403.689C424.258 408.034 417.921 418.019 414.547 423.157C413.301 421.352 408.191 413.756 407.005 412.779C405.285 409.207 403.363 406.519 400.323 403.979C400.241 401.921 405.029 397.549 404.517 393.241C403.639 385.864 395.747 386.902 389.855 387.089C387.089 383.7 383.735 378.696 381.044 375.022Z"/><path fill="#DE4213" d="M414.866 328.049C426.014 342.991 436.339 359.701 447.585 374.58C446.703 376.091 445.718 377.601 444.699 379.024C439.927 385.692 435.618 392.884 430.667 399.405C429.716 397.933 430.33 394.541 429.76 392.24C428.746 388.145 425.993 385.629 422.628 383.477C424.408 380.587 427.803 375.689 427.667 372.301C427.599 370.74 426.908 369.27 425.748 368.222C423.08 365.835 414.781 366.585 411.066 366.58C405.789 366.574 400.144 366.523 394.889 366.748C398.093 361.798 404.113 349.42 403.757 343.824L404.539 342.55C407.67 338.381 412.114 332.455 414.866 328.049Z"/><path fill="#2771DB" d="M414.547 423.157C417.921 418.019 424.258 408.034 428.042 403.689C427.24 408.617 423.376 414.274 421.174 418.951C416.126 429.668 410.445 440.07 406.687 451.35C405.769 454.106 404.405 457.467 403.822 460.273C400.843 460.435 390.998 460.442 388.135 460.138C391.657 452.531 395.318 444.989 399.117 437.517C401.781 432.147 405.069 426.164 406.71 420.437C407.3 418.378 407.098 414.961 407.005 412.779C408.191 413.756 413.301 421.352 414.547 423.157Z"/><path fill="#2771DB" d="M391.815 121.521C394.009 123.369 396.149 127.467 397.997 129.735L397.987 130.011C396.665 132.307 393.88 137.347 392.296 139.307C394.644 140.829 397.436 143.238 397.713 146.039C398.172 150.683 398.339 162.68 397.441 166.837C396.945 169.092 396.042 171.238 394.774 173.169C391.587 178.077 386.757 181.122 381.055 182.25C379.822 182.485 378.573 182.614 377.318 182.637C382.166 190.487 378.719 198.561 369.215 199.539C370.301 230.193 375.399 258.295 388.274 286.472C390.145 290.563 392.109 294.61 394.164 298.612C398.062 306.082 402.766 313.786 404.134 322.301C405.056 327.468 404.963 337.231 404.539 342.55L403.757 343.824C399.11 350.134 394.509 356.477 389.955 362.855C387.172 366.746 384.052 371.39 381.044 375.022C383.735 378.696 387.089 383.7 389.855 387.089C388.223 387.44 374.496 387.283 372.361 387.076C375.673 381.391 377.628 377.4 379.523 371.004C384.004 355.799 382.183 339.43 374.469 325.582C371.901 320.305 369.081 315.197 366.55 309.857C364.477 305.483 362.904 301.434 361.027 297.009C350.707 271.362 347.739 247.836 345.889 220.764L346.024 219.868C346.791 219.177 349.686 219.675 351.303 218.768C357.519 215.281 357.23 208.587 354.47 203.008C356.07 202.923 357.978 202.762 359.53 202.422C364.659 201.287 369.113 198.129 371.88 193.663C373.095 191.713 373.946 189.559 374.392 187.305C375.085 183.747 374.957 170.203 374.473 165.955C374.179 163.376 371.657 161.323 369.448 159.992C370.436 157.61 375.051 150.093 376.685 147.318L391.815 121.521Z"/><path fill="#DE4213" d="M414.866 58.3358L437.527 90.7682C439.66 93.7962 445.472 102.577 447.705 104.899C442.001 112.469 435.485 122.702 429.984 130.697C425.316 137.481 418.467 146.94 414.416 153.692C409.908 146.742 404.889 140.051 400.264 133.171C399.557 132.118 398.804 130.973 397.987 130.011L397.997 129.735C396.149 127.467 394.009 123.369 391.815 121.521C394.602 116.086 399.537 108.524 402.798 102.921C396.775 103.173 389.053 103.042 382.958 102.97C383.998 101.318 385.759 99.1271 386.953 97.504L393.823 87.9883C394.896 86.491 396.819 83.9586 397.586 82.373L398.099 82.0862C402.967 74.3546 409.763 66.2018 414.866 58.3358Z"/><path fill="#BA120C" d="M398.099 82.0862C399.782 82.3969 406.525 82.3083 408.581 82.2652C414.349 82.144 420.271 82.371 425.995 82.2961C419.151 94.2221 412.21 106.092 405.172 117.905C404.249 119.456 398.681 128.972 397.997 129.735C396.149 127.467 394.009 123.369 391.815 121.521C394.602 116.086 399.537 108.524 402.798 102.921C396.775 103.173 389.053 103.042 382.958 102.97C383.998 101.318 385.759 99.1271 386.953 97.504L393.823 87.9883C394.896 86.491 396.819 83.9586 397.586 82.373L398.099 82.0862Z"/><path fill="#DE4213" d="M414.841 196.984C415.847 197.92 421.201 205.974 422.372 207.656L437.805 229.745C440.776 234 444.492 239.617 447.715 243.509C444.196 247.821 415.182 291.39 414.278 291.763C407.048 281.477 399.889 271.141 392.802 260.756C389.93 256.581 383.829 247.198 380.814 243.865C384.589 239.614 389.977 231.597 393.507 226.697C400.678 216.836 407.79 206.932 414.841 196.984Z"/><defs><linearGradient id="gradient_1" gradientUnits="userSpaceOnUse" x1="74.839027" y1="270.87265" x2="196.62625" y2="306.74524"><stop offset="0" stop-color="#FA993D"/><stop offset="1" stop-color="#FFE186"/></linearGradient></defs><path fill="url(#gradient_1)" d="M89.3303 219.356C92.062 219.772 97.9049 219.627 100.909 219.609L118.861 219.558C139.859 219.569 161.298 219.838 182.252 219.59C184.302 219.586 187.156 219.498 189.139 219.662C193.526 239.086 197.987 259.077 203.372 278.256C205.441 285.721 207.602 293.161 209.852 300.573C210.394 302.337 213.465 311.894 213.63 313.122C216.55 321.584 219.532 332.147 222.932 340.275C221.932 340.752 215.449 340.441 213.865 340.506C203.276 340.939 192.37 344.818 185.942 353.648C185.697 353.985 183.873 356.571 183.753 356.845L182.313 357.714C172.907 362.844 154.75 365.376 143.951 365.494C131.502 365.672 119.955 365.523 107.697 363.032C103.751 362.229 100.495 361.117 96.6728 360.142C98.4865 350.281 96.5412 342.456 94.8878 332.865C92.698 331.521 90.1268 332.24 87.9502 329.239C85.0059 325.179 86.9014 322.58 87.3148 318.664C81.1854 316.855 75.1265 317.167 70.3887 312.025C63.6329 304.693 68.3935 300.134 72.6662 293.269L87.5441 269.629C90.7553 264.535 96.7824 256.353 97.0795 250.529C96.8618 249.854 95.5562 248.276 95.047 247.684C91.9703 244.157 89.8989 240.078 89.4934 235.362C89.2634 232.687 90.5486 229.742 90.4161 227.089C89.8426 225.044 89.5335 221.541 89.3303 219.356Z"/><path fill="#FCEA94" d="M182.252 219.59C184.302 219.586 187.156 219.498 189.139 219.662C193.526 239.086 197.987 259.077 203.372 278.256C205.441 285.721 207.602 293.161 209.852 300.573C210.394 302.337 213.465 311.894 213.63 313.122C216.55 321.584 219.532 332.147 222.932 340.275C221.932 340.752 215.449 340.441 213.865 340.506C203.276 340.939 192.37 344.818 185.942 353.648C185.697 353.985 183.873 356.571 183.753 356.845L182.313 357.714C182.62 354.386 182.393 347.978 182.39 344.359L182.415 319.723L182.58 247.756L182.51 228.868C182.495 226.822 182.244 221.758 182.69 219.999L182.252 219.59Z"/><path fill="#811608" d="M90.4161 227.089C92.3372 224.247 95.0741 222.065 98.5584 221.646C107.081 220.622 118.018 221.003 126.357 223.085C142.122 227.021 158.644 230.999 172.77 239.205C177.75 242.127 176.308 246.036 171.331 247.666L170.936 247.563C167.964 246.775 165.091 245.49 162.231 244.37C155.557 241.756 148.888 239.525 141.688 238.93C139.087 238.715 136.248 238.606 133.897 239.936C133.138 240.365 132.394 240.854 132.171 241.747C132.049 242.239 132.241 242.774 132.525 243.182C136.562 249.007 162.272 252.818 161.607 260.475C161.453 262.249 159.747 263.835 158.425 264.846C150.078 271.23 131.93 275.376 121.456 276.813C118.796 277.178 115.802 277.74 113.138 277.321C111.532 277.068 110.377 276.292 109.426 274.973C108.824 274.139 108.59 273.174 108.82 272.165C109.51 269.143 114.701 266.764 112.987 263.671C110.098 258.454 101.999 253.969 97.0795 250.529C96.8618 249.854 95.5562 248.276 95.047 247.684C91.9703 244.157 89.8989 240.078 89.4934 235.362C89.2634 232.687 90.5486 229.742 90.4161 227.089Z"/><path fill="#811608" d="M87.3148 318.664C89.0816 316.035 92.2384 314.588 95.3253 314.117C105.373 312.584 114.949 313.072 123.576 318.946C128.386 322.22 132.031 326.69 136.385 329.95C136.009 330.371 135.674 330.761 135.661 331.361C135.504 338.437 135.771 345.536 135.672 352.619C135.655 353.825 135.627 355.172 135.69 356.367C120.977 353.234 115.132 342.116 102.898 334.991C100.703 333.712 97.3989 333.17 94.8878 332.865C92.698 331.521 90.1268 332.24 87.9502 329.239C85.0059 325.179 86.9014 322.58 87.3148 318.664Z"/><path fill="#BA120C" d="M136.385 329.95C140.099 332.169 142.753 333.069 147.198 332.034C152.92 330.703 156.837 324.553 154.941 318.87C153.995 315.977 152.161 314.281 150.513 311.844C150.273 311.272 150.247 311.47 150.445 310.939C150.647 310.399 151.35 309.772 151.906 309.684C159.933 308.472 167.226 316.326 169.137 323.528C170.78 329.72 170.058 335.847 166.762 341.372C160.315 352.177 147.8 357.2 135.69 356.367C135.627 355.172 135.655 353.825 135.672 352.619C135.771 345.536 135.504 338.437 135.661 331.361C135.674 330.761 136.009 330.371 136.385 329.95Z"/><path fill="#811608" d="M250.341 203.185C253.686 202.949 258.96 203.075 262.38 203.063L284.442 203.01L354.47 203.008C357.23 208.587 357.519 215.281 351.303 218.768C349.686 219.675 346.791 219.177 346.024 219.868L345.889 220.764C347.739 247.836 350.707 271.362 361.027 297.009C350.947 298.554 339.599 299.29 329.352 300.407L266.062 307.163C259.084 307.855 216.608 311.522 213.63 313.122C213.465 311.894 210.394 302.337 209.852 300.573C207.602 293.161 205.441 285.721 203.372 278.256C197.987 259.077 193.526 239.086 189.139 219.662L191.55 219.629C192.847 219.12 245.284 219.493 250.449 219.508C250.446 214.386 250.572 208.251 250.341 203.185Z"/><path fill="#184ABD" d="M250.341 203.185C253.686 202.949 258.96 203.075 262.38 203.063L284.442 203.01L354.47 203.008C357.23 208.587 357.519 215.281 351.303 218.768C349.686 219.675 346.791 219.177 346.024 219.868L345.889 220.764L345.749 220.002C345.627 219.889 345.504 219.776 345.382 219.664C341.862 219.514 335.354 219.737 332.052 219.73L227.02 219.643C215.449 219.585 203.021 219.959 191.55 219.629C192.847 219.12 245.284 219.493 250.449 219.508C250.446 214.386 250.572 208.251 250.341 203.185Z"/><path fill="#DE4213" d="M70.8009 160.011C73.9983 158.835 109.744 159.468 115.725 159.46L250.349 159.438C250.162 170.193 250.468 181.067 250.371 191.827C250.353 193.816 250.638 201.848 250.267 203.079L250.341 203.185C250.572 208.251 250.446 214.386 250.449 219.508C245.284 219.493 192.847 219.12 191.55 219.629L189.139 219.662C187.156 219.498 184.302 219.586 182.252 219.59C161.298 219.838 139.859 219.569 118.861 219.558L100.909 219.609C97.9049 219.627 92.062 219.772 89.3303 219.356C87.4701 218.184 83.6279 219.482 80.8791 216.546C76.3668 211.728 77.6426 207.068 81.6284 202.701C80.9257 202.234 79.6087 201.877 78.7589 201.541C76.1927 200.528 74.063 199.65 71.9424 197.857C68.0547 194.574 65.6708 189.85 65.3395 184.773C65.1561 182.031 65.3325 178.947 65.3237 176.118C65.3124 172.462 64.5264 167.812 66.2774 164.49C67.2399 162.664 69.4797 161.633 70.8009 160.011Z"/><path fill="#2771DB" d="M81.6284 202.701C84.0344 203.238 95.1742 203.04 98.0038 203.036L129.133 203.062L207 203.001C221.007 203.01 236.405 203.458 250.267 203.079L250.341 203.185C250.572 208.251 250.446 214.386 250.449 219.508C245.284 219.493 192.847 219.12 191.55 219.629L189.139 219.662C187.156 219.498 184.302 219.586 182.252 219.59C161.298 219.838 139.859 219.569 118.861 219.558L100.909 219.609C97.9049 219.627 92.062 219.772 89.3303 219.356C87.4701 218.184 83.6279 219.482 80.8791 216.546C76.3668 211.728 77.6426 207.068 81.6284 202.701Z"/><path fill="#8EBBFC" d="M183.648 82.2643C183.532 76.0616 183.334 65.6083 183.975 59.7174C185.011 49.7357 190.019 40.5905 197.871 34.3416C205.876 27.9791 214.491 25.9748 224.467 26.0844C230.836 26.1543 237.28 26.1033 243.65 26.0906L299.708 26.0885L359.557 26.085L377.797 26.0517C380.535 26.0449 385.576 25.906 388.121 26.1947C386.998 27.9903 378.491 36.3161 376.318 38.5088L347.338 67.7756L338.049 77.0523C336.7 78.3976 334.08 80.865 332.949 82.2671L293.28 82.2671C287.436 82.28 279.6 82.1159 273.842 82.4554L273.292 82.0532C271.116 82.3271 268.789 82.2521 266.59 82.2735C257.742 82.3596 248.84 82.1247 239.995 82.3107L239.696 82.409C233.799 82.1214 226.304 82.2917 220.287 82.2783L183.648 82.2643Z"/><path fill="#DE4213" d="M239.995 82.3107C241.165 80.3241 244.6 75.862 246.079 73.8236C249.771 68.7556 253.407 63.6467 256.986 58.4979C262.263 65.7585 268.464 74.5248 273.292 82.0532C271.116 82.3271 268.789 82.2521 266.59 82.2735C257.742 82.3596 248.84 82.1247 239.995 82.3107Z"/><path fill="#BA120C" d="M250.349 159.438L333.264 159.411L353.464 159.471C357.476 159.459 365.221 159.204 368.781 159.869L369.198 159.943C369.281 159.959 369.365 159.975 369.448 159.992C371.657 161.323 374.179 163.376 374.473 165.955C374.957 170.203 375.085 183.747 374.392 187.305C373.946 189.559 373.095 191.713 371.88 193.663C369.113 198.129 364.659 201.287 359.53 202.422C357.978 202.762 356.07 202.923 354.47 203.008L284.442 203.01L262.38 203.063C258.96 203.075 253.686 202.949 250.341 203.185L250.267 203.079C250.638 201.848 250.353 193.816 250.371 191.827C250.468 181.067 250.162 170.193 250.349 159.438Z"/><path fill="#2771DB" d="M332.949 82.2671L375.498 82.2621C381.934 82.2605 391.334 81.9842 397.586 82.373C396.819 83.9586 394.896 86.491 393.823 87.9883L386.953 97.504C385.759 99.1271 383.998 101.318 382.958 102.97C372.445 103.228 361.069 102.976 350.49 102.976L287.771 102.979C286.634 100.755 285.015 98.7416 283.647 96.6775C280.6 92.0771 276.619 87.1497 273.842 82.4554C279.6 82.1159 287.436 82.28 293.28 82.2671L332.949 82.2671Z"/><path fill="#2771DB" d="M183.648 82.2643L220.287 82.2783C226.304 82.2917 233.799 82.1214 239.696 82.409C235.846 88.3687 229.27 97.192 224.954 102.968C216.067 103.14 207.03 102.876 198.133 102.946C193.355 102.984 188.401 102.801 183.641 103.157C183.48 102.067 183.569 98.0257 183.572 96.6889L183.648 82.2643Z"/><path fill="#BA120C" d="M273.292 82.0532L273.842 82.4554C276.619 87.1497 280.6 92.0771 283.647 96.6775C285.015 98.7416 286.634 100.755 287.771 102.979L224.954 102.968C229.27 97.192 235.846 88.3687 239.696 82.409L239.995 82.3107C248.84 82.1247 257.742 82.3596 266.59 82.2735C268.789 82.2521 271.116 82.3271 273.292 82.0532Z"/></svg>